<svg class="railroad-diagram" width="1632" height="648" viewBox="0 0 1632 648" xmlns="http://www.w3.org/2000/svg" xmlns:xlink="http://www.w3.org/1999/xlink">
<g transform="translate(.5 .5)">
<g>
<path d="M20 329v20m10 -20v20m-10 -10h20"></path>
</g>
<path d="M40 339h10"></path>
<g class="terminal ">
<path d="M50 339h0"></path>
<path d="M129.5 339h0"></path>
<rect x="50" y="328" width="79.5" height="22" rx="10" ry="10"></rect>
<text x="89.75" y="343">board {</text>
</g>
<path d="M129.5 339h10"></path>
<path d="M139.5 339h10"></path>
<g class="terminal ">
<path d="M149.5 339h0"></path>
<path d="M229 339h0"></path>
<rect x="149.5" y="328" width="79.5" height="22" rx="10" ry="10"></rect>
<text x="189.25" y="343">NEWLINE</text>
</g>
<path d="M229 339h10"></path>
<g>
<path d="M239 339h0"></path>
<path d="M1543.5 339h0"></path>
<path d="M239 339a10 10 0 0 0 10 -10v-299a10 10 0 0 1 10 -10"></path>
<g>
<path d="M259 20h1264.5"></path>
</g>
<path d="M1523.5 20a10 10 0 0 1 10 10v299a10 10 0 0 0 10 10"></path>
<path d="M239 339h20"></path>
<g>
<path d="M259 339h0"></path>
<path d="M1523.5 339h0"></path>
<path d="M259 339h10"></path>
<g>
<path d="M269 339h0"></path>
<path d="M1513.5 339h0"></path>
<g>
<path d="M269 339h0"></path>
<path d="M1424 339h0"></path>
<path d="M269 339a10 10 0 0 0 10 -10v-280a10 10 0 0 1 10 -10"></path>
<g>
<path d="M289 39h361.25"></path>
<path d="M1042.75 39h361.25"></path>
<g class="terminal ">
<path d="M650.25 39h0"></path>
<path d="M806.25 39h0"></path>
<rect x="650.25" y="28" width="156" height="22" rx="10" ry="10"></rect>
<text x="728.25" y="43">withDimensions (</text>
</g>
<path d="M806.25 39h10"></path>
<path d="M816.25 39h10"></path>
<g class="non-terminal ">
<path d="M826.25 39h0"></path>
<path d="M871.75 39h0"></path>
<rect x="826.25" y="28" width="45.5" height="22"></rect>
<text x="849" y="43">Int</text>
</g>
<path d="M871.75 39h10"></path>
<path d="M881.75 39h10"></path>
<g class="terminal ">
<path d="M891.75 39h0"></path>
<path d="M928.75 39h0"></path>
<rect x="891.75" y="28" width="37" height="22" rx="10" ry="10"></rect>
<text x="910.25" y="43">, </text>
</g>
<path d="M928.75 39h10"></path>
<path d="M938.75 39h10"></path>
<g class="non-terminal ">
<path d="M948.75 39h0"></path>
<path d="M994.25 39h0"></path>
<rect x="948.75" y="28" width="45.5" height="22"></rect>
<text x="971.5" y="43">Int</text>
</g>
<path d="M994.25 39h10"></path>
<path d="M1004.25 39h10"></path>
<g class="terminal ">
<path d="M1014.25 39h0"></path>
<path d="M1042.75 39h0"></path>
<rect x="1014.25" y="28" width="28.5" height="22" rx="10" ry="10"></rect>
<text x="1028.5" y="43">)</text>
</g>
</g>
<path d="M1404 39a10 10 0 0 1 10 10v280a10 10 0 0 0 10 10"></path>
<path d="M269 339h20"></path>
<g>
<path d="M289 339h0"></path>
<path d="M1404 339h0"></path>
<g>
<path d="M289 339h0"></path>
<path d="M1095 339h0"></path>
<path d="M289 339a10 10 0 0 0 10 -10v-40a10 10 0 0 1 10 -10"></path>
<g>
<path d="M309 279h38.25"></path>
<path d="M1036.75 279h38.25"></path>
<g>
<path d="M347.25 279h0"></path>
<path d="M847.75 279h0"></path>
<path d="M347.25 279h20"></path>
<g class="terminal ">
<path d="M367.25 279h169.25"></path>
<path d="M658.5 279h169.25"></path>
<rect x="536.5" y="268" width="122" height="22" rx="10" ry="10"></rect>
<text x="597.5" y="283">hasBlockCell</text>
</g>
<path d="M827.75 279h20"></path>
<path d="M347.25 279a10 10 0 0 1 10 10v10a10 10 0 0 0 10 10"></path>
<g>
<path d="M367.25 309h0"></path>
<path d="M827.75 309h0"></path>
<g class="terminal ">
<path d="M367.25 309h0"></path>
<path d="M591.25 309h0"></path>
<rect x="367.25" y="298" width="224" height="22" rx="10" ry="10"></rect>
<text x="479.25" y="313">hasBlockCells inAnArea (</text>
</g>
<path d="M591.25 309h10"></path>
<path d="M601.25 309h10"></path>
<g class="non-terminal ">
<path d="M611.25 309h0"></path>
<path d="M656.75 309h0"></path>
<rect x="611.25" y="298" width="45.5" height="22"></rect>
<text x="634" y="313">Int</text>
</g>
<path d="M656.75 309h10"></path>
<path d="M666.75 309h10"></path>
<g class="terminal ">
<path d="M676.75 309h0"></path>
<path d="M713.75 309h0"></path>
<rect x="676.75" y="298" width="37" height="22" rx="10" ry="10"></rect>
<text x="695.25" y="313">, </text>
</g>
<path d="M713.75 309h10"></path>
<path d="M723.75 309h10"></path>
<g class="non-terminal ">
<path d="M733.75 309h0"></path>
<path d="M779.25 309h0"></path>
<rect x="733.75" y="298" width="45.5" height="22"></rect>
<text x="756.5" y="313">Int</text>
</g>
<path d="M779.25 309h10"></path>
<path d="M789.25 309h10"></path>
<g class="terminal ">
<path d="M799.25 309h0"></path>
<path d="M827.75 309h0"></path>
<rect x="799.25" y="298" width="28.5" height="22" rx="10" ry="10"></rect>
<text x="813.5" y="313">)</text>
</g>
</g>
<path d="M827.75 309a10 10 0 0 0 10 -10v-10a10 10 0 0 1 10 -10"></path>
</g>
<path d="M847.75 279h10"></path>
<g class="terminal ">
<path d="M857.75 279h0"></path>
<path d="M962.75 279h0"></path>
<rect x="857.75" y="268" width="105" height="22" rx="10" ry="10"></rect>
<text x="910.25" y="283"> pushable </text>
</g>
<path d="M962.75 279h10"></path>
<path d="M972.75 279h10"></path>
<g class="non-terminal ">
<path d="M982.75 279h0"></path>
<path d="M1036.75 279h0"></path>
<rect x="982.75" y="268" width="54" height="22"></rect>
<text x="1009.75" y="283">Push</text>
</g>
</g>
<path d="M1075 279a10 10 0 0 1 10 10v40a10 10 0 0 0 10 10"></path>
<path d="M289 339a10 10 0 0 0 10 -10v-100a10 10 0 0 1 10 -10"></path>
<g>
<path d="M309 219h12.75"></path>
<path d="M1062.25 219h12.75"></path>
<g>
<path d="M321.75 219h0"></path>
<path d="M839.25 219h0"></path>
<path d="M321.75 219h20"></path>
<g class="terminal ">
<path d="M341.75 219h169.25"></path>
<path d="M650 219h169.25"></path>
<rect x="511" y="208" width="139" height="22" rx="10" ry="10"></rect>
<text x="580.5" y="223">hasRotatorCell</text>
</g>
<path d="M819.25 219h20"></path>
<path d="M321.75 219a10 10 0 0 1 10 10v10a10 10 0 0 0 10 10"></path>
<g>
<path d="M341.75 249h0"></path>
<path d="M819.25 249h0"></path>
<g class="terminal ">
<path d="M341.75 249h0"></path>
<path d="M582.75 249h0"></path>
<rect x="341.75" y="238" width="241" height="22" rx="10" ry="10"></rect>
<text x="462.25" y="253">hasRotatorCells inAnArea (</text>
</g>
<path d="M582.75 249h10"></path>
<path d="M592.75 249h10"></path>
<g class="non-terminal ">
<path d="M602.75 249h0"></path>
<path d="M648.25 249h0"></path>
<rect x="602.75" y="238" width="45.5" height="22"></rect>
<text x="625.5" y="253">Int</text>
</g>
<path d="M648.25 249h10"></path>
<path d="M658.25 249h10"></path>
<g class="terminal ">
<path d="M668.25 249h0"></path>
<path d="M705.25 249h0"></path>
<rect x="668.25" y="238" width="37" height="22" rx="10" ry="10"></rect>
<text x="686.75" y="253">, </text>
</g>
<path d="M705.25 249h10"></path>
<path d="M715.25 249h10"></path>
<g class="non-terminal ">
<path d="M725.25 249h0"></path>
<path d="M770.75 249h0"></path>
<rect x="725.25" y="238" width="45.5" height="22"></rect>
<text x="748" y="253">Int</text>
</g>
<path d="M770.75 249h10"></path>
<path d="M780.75 249h10"></path>
<g class="terminal ">
<path d="M790.75 249h0"></path>
<path d="M819.25 249h0"></path>
<rect x="790.75" y="238" width="28.5" height="22" rx="10" ry="10"></rect>
<text x="805" y="253">)</text>
</g>
</g>
<path d="M819.25 249a10 10 0 0 0 10 -10v-10a10 10 0 0 1 10 -10"></path>
</g>
<path d="M839.25 219h10"></path>
<g class="terminal ">
<path d="M849.25 219h0"></path>
<path d="M954.25 219h0"></path>
<rect x="849.25" y="208" width="105" height="22" rx="10" ry="10"></rect>
<text x="901.75" y="223"> rotating </text>
</g>
<path d="M954.25 219h10"></path>
<path d="M964.25 219h10"></path>
<g class="non-terminal ">
<path d="M974.25 219h0"></path>
<path d="M1062.25 219h0"></path>
<rect x="974.25" y="208" width="88" height="22"></rect>
<text x="1018.25" y="223">Rotation</text>
</g>
</g>
<path d="M1075 219a10 10 0 0 1 10 10v100a10 10 0 0 0 10 10"></path>
<path d="M289 339a10 10 0 0 0 10 -10v-160a10 10 0 0 1 10 -10"></path>
<g>
<path d="M309 159h0"></path>
<path d="M1075 159h0"></path>
<g>
<path d="M309 159h0"></path>
<path d="M843.5 159h0"></path>
<path d="M309 159h20"></path>
<g class="terminal ">
<path d="M329 159h169.25"></path>
<path d="M654.25 159h169.25"></path>
<rect x="498.25" y="148" width="156" height="22" rx="10" ry="10"></rect>
<text x="576.25" y="163">hasGeneratorCell</text>
</g>
<path d="M823.5 159h20"></path>
<path d="M309 159a10 10 0 0 1 10 10v10a10 10 0 0 0 10 10"></path>
<g>
<path d="M329 189h0"></path>
<path d="M823.5 189h0"></path>
<g class="terminal ">
<path d="M329 189h0"></path>
<path d="M587 189h0"></path>
<rect x="329" y="178" width="258" height="22" rx="10" ry="10"></rect>
<text x="458" y="193">hasGeneratorCells inAnArea (</text>
</g>
<path d="M587 189h10"></path>
<path d="M597 189h10"></path>
<g class="non-terminal ">
<path d="M607 189h0"></path>
<path d="M652.5 189h0"></path>
<rect x="607" y="178" width="45.5" height="22"></rect>
<text x="629.75" y="193">Int</text>
</g>
<path d="M652.5 189h10"></path>
<path d="M662.5 189h10"></path>
<g class="terminal ">
<path d="M672.5 189h0"></path>
<path d="M709.5 189h0"></path>
<rect x="672.5" y="178" width="37" height="22" rx="10" ry="10"></rect>
<text x="691" y="193">, </text>
</g>
<path d="M709.5 189h10"></path>
<path d="M719.5 189h10"></path>
<g class="non-terminal ">
<path d="M729.5 189h0"></path>
<path d="M775 189h0"></path>
<rect x="729.5" y="178" width="45.5" height="22"></rect>
<text x="752.25" y="193">Int</text>
</g>
<path d="M775 189h10"></path>
<path d="M785 189h10"></path>
<g class="terminal ">
<path d="M795 189h0"></path>
<path d="M823.5 189h0"></path>
<rect x="795" y="178" width="28.5" height="22" rx="10" ry="10"></rect>
<text x="809.25" y="193">)</text>
</g>
</g>
<path d="M823.5 189a10 10 0 0 0 10 -10v-10a10 10 0 0 1 10 -10"></path>
</g>
<path d="M843.5 159h10"></path>
<g class="terminal ">
<path d="M853.5 159h0"></path>
<path d="M941.5 159h0"></path>
<rect x="853.5" y="148" width="88" height="22" rx="10" ry="10"></rect>
<text x="897.5" y="163"> facing </text>
</g>
<path d="M941.5 159h10"></path>
<path d="M951.5 159h10"></path>
<g class="non-terminal ">
<path d="M961.5 159h0"></path>
<path d="M1075 159h0"></path>
<rect x="961.5" y="148" width="113.5" height="22"></rect>
<text x="1018.25" y="163">Orientation</text>
</g>
</g>
<path d="M1075 159a10 10 0 0 1 10 10v160a10 10 0 0 0 10 10"></path>
<path d="M289 339a10 10 0 0 0 10 -10v-220a10 10 0 0 1 10 -10"></path>
<g>
<path d="M309 99h17"></path>
<path d="M1058 99h17"></path>
<g>
<path d="M326 99h0"></path>
<path d="M826.5 99h0"></path>
<path d="M326 99h20"></path>
<g class="terminal ">
<path d="M346 99h169.25"></path>
<path d="M637.25 99h169.25"></path>
<rect x="515.25" y="88" width="122" height="22" rx="10" ry="10"></rect>
<text x="576.25" y="103">hasMoverCell</text>
</g>
<path d="M806.5 99h20"></path>
<path d="M326 99a10 10 0 0 1 10 10v10a10 10 0 0 0 10 10"></path>
<g>
<path d="M346 129h0"></path>
<path d="M806.5 129h0"></path>
<g class="terminal ">
<path d="M346 129h0"></path>
<path d="M570 129h0"></path>
<rect x="346" y="118" width="224" height="22" rx="10" ry="10"></rect>
<text x="458" y="133">hasMoverCells inAnArea (</text>
</g>
<path d="M570 129h10"></path>
<path d="M580 129h10"></path>
<g class="non-terminal ">
<path d="M590 129h0"></path>
<path d="M635.5 129h0"></path>
<rect x="590" y="118" width="45.5" height="22"></rect>
<text x="612.75" y="133">Int</text>
</g>
<path d="M635.5 129h10"></path>
<path d="M645.5 129h10"></path>
<g class="terminal ">
<path d="M655.5 129h0"></path>
<path d="M692.5 129h0"></path>
<rect x="655.5" y="118" width="37" height="22" rx="10" ry="10"></rect>
<text x="674" y="133">, </text>
</g>
<path d="M692.5 129h10"></path>
<path d="M702.5 129h10"></path>
<g class="non-terminal ">
<path d="M712.5 129h0"></path>
<path d="M758 129h0"></path>
<rect x="712.5" y="118" width="45.5" height="22"></rect>
<text x="735.25" y="133">Int</text>
</g>
<path d="M758 129h10"></path>
<path d="M768 129h10"></path>
<g class="terminal ">
<path d="M778 129h0"></path>
<path d="M806.5 129h0"></path>
<rect x="778" y="118" width="28.5" height="22" rx="10" ry="10"></rect>
<text x="792.25" y="133">)</text>
</g>
</g>
<path d="M806.5 129a10 10 0 0 0 10 -10v-10a10 10 0 0 1 10 -10"></path>
</g>
<path d="M826.5 99h10"></path>
<g class="terminal ">
<path d="M836.5 99h0"></path>
<path d="M924.5 99h0"></path>
<rect x="836.5" y="88" width="88" height="22" rx="10" ry="10"></rect>
<text x="880.5" y="103"> facing </text>
</g>
<path d="M924.5 99h10"></path>
<path d="M934.5 99h10"></path>
<g class="non-terminal ">
<path d="M944.5 99h0"></path>
<path d="M1058 99h0"></path>
<rect x="944.5" y="88" width="113.5" height="22"></rect>
<text x="1001.25" y="103">Orientation</text>
</g>
</g>
<path d="M1075 99a10 10 0 0 1 10 10v220a10 10 0 0 0 10 10"></path>
<path d="M289 339a10 10 0 0 0 10 -10v-250a10 10 0 0 1 10 -10"></path>
<g>
<path d="M309 69h118.75"></path>
<path d="M956.25 69h118.75"></path>
<g class="terminal ">
<path d="M427.75 69h0"></path>
<path d="M719.75 69h0"></path>
<rect x="427.75" y="58" width="292" height="22" rx="10" ry="10"></rect>
<text x="573.75" y="73">hasPlayableArea withDimensions (</text>
</g>
<path d="M719.75 69h10"></path>
<path d="M729.75 69h10"></path>
<g class="non-terminal ">
<path d="M739.75 69h0"></path>
<path d="M785.25 69h0"></path>
<rect x="739.75" y="58" width="45.5" height="22"></rect>
<text x="762.5" y="73">Int</text>
</g>
<path d="M785.25 69h10"></path>
<path d="M795.25 69h10"></path>
<g class="terminal ">
<path d="M805.25 69h0"></path>
<path d="M842.25 69h0"></path>
<rect x="805.25" y="58" width="37" height="22" rx="10" ry="10"></rect>
<text x="823.75" y="73">, </text>
</g>
<path d="M842.25 69h10"></path>
<path d="M852.25 69h10"></path>
<g class="non-terminal ">
<path d="M862.25 69h0"></path>
<path d="M907.75 69h0"></path>
<rect x="862.25" y="58" width="45.5" height="22"></rect>
<text x="885" y="73">Int</text>
</g>
<path d="M907.75 69h10"></path>
<path d="M917.75 69h10"></path>
<g class="terminal ">
<path d="M927.75 69h0"></path>
<path d="M956.25 69h0"></path>
<rect x="927.75" y="58" width="28.5" height="22" rx="10" ry="10"></rect>
<text x="942" y="73">)</text>
</g>
</g>
<path d="M1075 69a10 10 0 0 1 10 10v250a10 10 0 0 0 10 10"></path>
<path d="M289 339h20"></path>
<g>
<path d="M309 339h132.75"></path>
<path d="M942.25 339h132.75"></path>
<path d="M441.75 339h20"></path>
<g class="terminal ">
<path d="M461.75 339h169.25"></path>
<path d="M753 339h169.25"></path>
<rect x="631" y="328" width="122" height="22" rx="10" ry="10"></rect>
<text x="692" y="343">hasEnemyCell</text>
</g>
<path d="M922.25 339h20"></path>
<path d="M441.75 339a10 10 0 0 1 10 10v10a10 10 0 0 0 10 10"></path>
<g>
<path d="M461.75 369h0"></path>
<path d="M922.25 369h0"></path>
<g class="terminal ">
<path d="M461.75 369h0"></path>
<path d="M685.75 369h0"></path>
<rect x="461.75" y="358" width="224" height="22" rx="10" ry="10"></rect>
<text x="573.75" y="373">hasEnemyCells inAnArea (</text>
</g>
<path d="M685.75 369h10"></path>
<path d="M695.75 369h10"></path>
<g class="non-terminal ">
<path d="M705.75 369h0"></path>
<path d="M751.25 369h0"></path>
<rect x="705.75" y="358" width="45.5" height="22"></rect>
<text x="728.5" y="373">Int</text>
</g>
<path d="M751.25 369h10"></path>
<path d="M761.25 369h10"></path>
<g class="terminal ">
<path d="M771.25 369h0"></path>
<path d="M808.25 369h0"></path>
<rect x="771.25" y="358" width="37" height="22" rx="10" ry="10"></rect>
<text x="789.75" y="373">, </text>
</g>
<path d="M808.25 369h10"></path>
<path d="M818.25 369h10"></path>
<g class="non-terminal ">
<path d="M828.25 369h0"></path>
<path d="M873.75 369h0"></path>
<rect x="828.25" y="358" width="45.5" height="22"></rect>
<text x="851" y="373">Int</text>
</g>
<path d="M873.75 369h10"></path>
<path d="M883.75 369h10"></path>
<g class="terminal ">
<path d="M893.75 369h0"></path>
<path d="M922.25 369h0"></path>
<rect x="893.75" y="358" width="28.5" height="22" rx="10" ry="10"></rect>
<text x="908" y="373">)</text>
</g>
</g>
<path d="M922.25 369a10 10 0 0 0 10 -10v-10a10 10 0 0 1 10 -10"></path>
</g>
<path d="M1075 339h20"></path>
<path d="M289 339a10 10 0 0 1 10 10v40a10 10 0 0 0 10 10"></path>
<g>
<path d="M309 399h137"></path>
<path d="M938 399h137"></path>
<path d="M446 399h20"></path>
<g class="terminal ">
<path d="M466 399h169.25"></path>
<path d="M748.75 399h169.25"></path>
<rect x="635.25" y="388" width="113.5" height="22" rx="10" ry="10"></rect>
<text x="692" y="403">hasWallCell</text>
</g>
<path d="M918 399h20"></path>
<path d="M446 399a10 10 0 0 1 10 10v10a10 10 0 0 0 10 10"></path>
<g>
<path d="M466 429h0"></path>
<path d="M918 429h0"></path>
<g class="terminal ">
<path d="M466 429h0"></path>
<path d="M681.5 429h0"></path>
<rect x="466" y="418" width="215.5" height="22" rx="10" ry="10"></rect>
<text x="573.75" y="433">hasWallCells inAnArea (</text>
</g>
<path d="M681.5 429h10"></path>
<path d="M691.5 429h10"></path>
<g class="non-terminal ">
<path d="M701.5 429h0"></path>
<path d="M747 429h0"></path>
<rect x="701.5" y="418" width="45.5" height="22"></rect>
<text x="724.25" y="433">Int</text>
</g>
<path d="M747 429h10"></path>
<path d="M757 429h10"></path>
<g class="terminal ">
<path d="M767 429h0"></path>
<path d="M804 429h0"></path>
<rect x="767" y="418" width="37" height="22" rx="10" ry="10"></rect>
<text x="785.5" y="433">, </text>
</g>
<path d="M804 429h10"></path>
<path d="M814 429h10"></path>
<g class="non-terminal ">
<path d="M824 429h0"></path>
<path d="M869.5 429h0"></path>
<rect x="824" y="418" width="45.5" height="22"></rect>
<text x="846.75" y="433">Int</text>
</g>
<path d="M869.5 429h10"></path>
<path d="M879.5 429h10"></path>
<g class="terminal ">
<path d="M889.5 429h0"></path>
<path d="M918 429h0"></path>
<rect x="889.5" y="418" width="28.5" height="22" rx="10" ry="10"></rect>
<text x="903.75" y="433">)</text>
</g>
</g>
<path d="M918 429a10 10 0 0 0 10 -10v-10a10 10 0 0 1 10 -10"></path>
</g>
<path d="M1075 399a10 10 0 0 0 10 -10v-40a10 10 0 0 1 10 -10"></path>
<path d="M289 339a10 10 0 0 1 10 10v100a10 10 0 0 0 10 10"></path>
<g>
<path d="M309 459h124.25"></path>
<path d="M950.75 459h124.25"></path>
<path d="M433.25 459h20"></path>
<g class="terminal ">
<path d="M453.25 459h169.25"></path>
<path d="M761.5 459h169.25"></path>
<rect x="622.5" y="448" width="139" height="22" rx="10" ry="10"></rect>
<text x="692" y="463">hasDeleterCell</text>
</g>
<path d="M930.75 459h20"></path>
<path d="M433.25 459a10 10 0 0 1 10 10v10a10 10 0 0 0 10 10"></path>
<g>
<path d="M453.25 489h0"></path>
<path d="M930.75 489h0"></path>
<g class="terminal ">
<path d="M453.25 489h0"></path>
<path d="M694.25 489h0"></path>
<rect x="453.25" y="478" width="241" height="22" rx="10" ry="10"></rect>
<text x="573.75" y="493">hasDeleterCells inAnArea (</text>
</g>
<path d="M694.25 489h10"></path>
<path d="M704.25 489h10"></path>
<g class="non-terminal ">
<path d="M714.25 489h0"></path>
<path d="M759.75 489h0"></path>
<rect x="714.25" y="478" width="45.5" height="22"></rect>
<text x="737" y="493">Int</text>
</g>
<path d="M759.75 489h10"></path>
<path d="M769.75 489h10"></path>
<g class="terminal ">
<path d="M779.75 489h0"></path>
<path d="M816.75 489h0"></path>
<rect x="779.75" y="478" width="37" height="22" rx="10" ry="10"></rect>
<text x="798.25" y="493">, </text>
</g>
<path d="M816.75 489h10"></path>
<path d="M826.75 489h10"></path>
<g class="non-terminal ">
<path d="M836.75 489h0"></path>
<path d="M882.25 489h0"></path>
<rect x="836.75" y="478" width="45.5" height="22"></rect>
<text x="859.5" y="493">Int</text>
</g>
<path d="M882.25 489h10"></path>
<path d="M892.25 489h10"></path>
<g class="terminal ">
<path d="M902.25 489h0"></path>
<path d="M930.75 489h0"></path>
<rect x="902.25" y="478" width="28.5" height="22" rx="10" ry="10"></rect>
<text x="916.5" y="493">)</text>
</g>
</g>
<path d="M930.75 489a10 10 0 0 0 10 -10v-10a10 10 0 0 1 10 -10"></path>
</g>
<path d="M1075 459a10 10 0 0 0 10 -10v-100a10 10 0 0 1 10 -10"></path>
</g>
<path d="M1095 339h10"></path>
<g class="terminal ">
<path d="M1105 339h0"></path>
<path d="M1167.5 339h0"></path>
<rect x="1105" y="328" width="62.5" height="22" rx="10" ry="10"></rect>
<text x="1136.25" y="343"> at (</text>
</g>
<path d="M1167.5 339h10"></path>
<path d="M1177.5 339h10"></path>
<g class="non-terminal ">
<path d="M1187.5 339h0"></path>
<path d="M1233 339h0"></path>
<rect x="1187.5" y="328" width="45.5" height="22"></rect>
<text x="1210.25" y="343">Int</text>
</g>
<path d="M1233 339h10"></path>
<path d="M1243 339h10"></path>
<g class="terminal ">
<path d="M1253 339h0"></path>
<path d="M1290 339h0"></path>
<rect x="1253" y="328" width="37" height="22" rx="10" ry="10"></rect>
<text x="1271.5" y="343">, </text>
</g>
<path d="M1290 339h10"></path>
<path d="M1300 339h10"></path>
<g class="non-terminal ">
<path d="M1310 339h0"></path>
<path d="M1355.5 339h0"></path>
<rect x="1310" y="328" width="45.5" height="22"></rect>
<text x="1332.75" y="343">Int</text>
</g>
<path d="M1355.5 339h10"></path>
<path d="M1365.5 339h10"></path>
<g class="terminal ">
<path d="M1375.5 339h0"></path>
<path d="M1404 339h0"></path>
<rect x="1375.5" y="328" width="28.5" height="22" rx="10" ry="10"></rect>
<text x="1389.75" y="343">)</text>
</g>
</g>
<path d="M1404 339h20"></path>
<path d="M269 339a10 10 0 0 1 10 10v160a10 10 0 0 0 10 10"></path>
<g class="terminal ">
<path d="M289 519h517.75"></path>
<path d="M886.25 519h517.75"></path>
<rect x="806.75" y="508" width="79.5" height="22" rx="10" ry="10"></rect>
<text x="846.5" y="523">printIt</text>
</g>
<path d="M1404 519a10 10 0 0 0 10 -10v-160a10 10 0 0 1 10 -10"></path>
<path d="M269 339a10 10 0 0 1 10 10v190a10 10 0 0 0 10 10"></path>
<g>
<path d="M289 549h443.75"></path>
<path d="M960.25 549h443.75"></path>
<g class="terminal ">
<path d="M732.75 549h0"></path>
<path d="M820.75 549h0"></path>
<rect x="732.75" y="538" width="88" height="22" rx="10" ry="10"></rect>
<text x="776.75" y="553">saveIt (</text>
</g>
<path d="M820.75 549h10"></path>
<path d="M830.75 549h10"></path>
<g class="non-terminal ">
<path d="M840.75 549h0"></path>
<path d="M911.75 549h0"></path>
<rect x="840.75" y="538" width="71" height="22"></rect>
<text x="876.25" y="553">String</text>
</g>
<path d="M911.75 549h10"></path>
<path d="M921.75 549h10"></path>
<g class="terminal ">
<path d="M931.75 549h0"></path>
<path d="M960.25 549h0"></path>
<rect x="931.75" y="538" width="28.5" height="22" rx="10" ry="10"></rect>
<text x="946" y="553">)</text>
</g>
</g>
<path d="M1404 549a10 10 0 0 0 10 -10v-190a10 10 0 0 1 10 -10"></path>
<path d="M269 339a10 10 0 0 1 10 10v220a10 10 0 0 0 10 10"></path>
<g class="terminal ">
<path d="M289 579h522"></path>
<path d="M882 579h522"></path>
<rect x="811" y="568" width="71" height="22" rx="10" ry="10"></rect>
<text x="846.5" y="583">playIt</text>
</g>
<path d="M1404 579a10 10 0 0 0 10 -10v-220a10 10 0 0 1 10 -10"></path>
<path d="M269 339a10 10 0 0 1 10 10v250a10 10 0 0 0 10 10"></path>
<g class="terminal ">
<path d="M289 609h522"></path>
<path d="M882 609h522"></path>
<rect x="811" y="598" width="71" height="22" rx="10" ry="10"></rect>
<text x="846.5" y="613">editIt</text>
</g>
<path d="M1404 609a10 10 0 0 0 10 -10v-250a10 10 0 0 1 10 -10"></path>
</g>
<path d="M1424 339h10"></path>
<g class="terminal ">
<path d="M1434 339h0"></path>
<path d="M1513.5 339h0"></path>
<rect x="1434" y="328" width="79.5" height="22" rx="10" ry="10"></rect>
<text x="1473.75" y="343">NEWLINE</text>
</g>
</g>
<path d="M1513.5 339h10"></path>
<path d="M269 339a10 10 0 0 0 -10 10v269a10 10 0 0 0 10 10"></path>
<g>
<path d="M269 628h1244.5"></path>
</g>
<path d="M1513.5 628a10 10 0 0 0 10 -10v-269a10 10 0 0 0 -10 -10"></path>
</g>
<path d="M1523.5 339h20"></path>
</g>
<path d="M1543.5 339h10"></path>
<g class="terminal ">
<path d="M1553.5 339h0"></path>
<path d="M1582 339h0"></path>
<rect x="1553.5" y="328" width="28.5" height="22" rx="10" ry="10"></rect>
<text x="1567.75" y="343">}</text>
</g>
<path d="M1582 339h10"></path>
<path d="M 1592 339 h 20 m -10 -10 v 20 m 10 -20 v 20"></path>
</g>
<style>
	svg {
		background-color: hsl(30,20%,95%);
	}
	path {
		stroke-width: 3;
		stroke: black;
		fill: rgba(0,0,0,0);
	}
	text {
		font: bold 14px monospace;
		text-anchor: middle;
		white-space: pre;
	}
	text.diagram-text {
		font-size: 12px;
	}
	text.diagram-arrow {
		font-size: 16px;
	}
	text.label {
		text-anchor: start;
	}
	text.comment {
		font: italic 12px monospace;
	}
	g.non-terminal text {
		/&#42;font-style: italic;&#42;/
	}
	rect {
		stroke-width: 3;
		stroke: black;
		fill: hsl(120,100%,90%);
	}
	rect.group-box {
		stroke: gray;
		stroke-dasharray: 10 5;
		fill: none;
	}
	path.diagram-text {
		stroke-width: 3;
		stroke: black;
		fill: white;
		cursor: help;
	}
	g.diagram-text:hover path.diagram-text {
		fill: #eee;
	}</style>
</svg>
